:version 1.10
:name ASF
:units
  mass 1
  length 1
  angle deg
:documentation
  ASF file generated by Kaydara
:root
  axis xyz
  order  tx ty tz rx ry rz
  position 0 0 0
  orientation 0 0 0
:bonedata
  begin
    id 1
    name RightUpLegDummy
    direction -1 2.30186e-007 8.31532e-007
    length 4.04083
    axis 0 0 0 xyz
  end
  begin
    id 2
    name RightUpLeg
    direction -0.000919234 -0.999985 0.00544864
    length 17.4221
    axis -3.80308 -0.00076134 -0.0523649 xyz
    dof rx ry rz
  end
  begin
    id 3
    name RightLeg
    direction -0.000919271 -0.999984 -0.00555045
    length 17.1239
    axis 4.00314 0.0181274 -0.183583 xyz
    dof rx ry rz
  end
  begin
    id 4
    name RightFoot
    direction -2.57843e-005 -4.04509e-007 1
    length 6.72091
    axis 8.18909e-005 -0.122003 -0.403008 xyz
    dof rx ry rz
  end
  begin
    id 5
    name RightToes
    direction 0.00116825 -0.014069 0.9999
    length 3.85082
    axis 0.000514414 0.540638 -0.356797 xyz
    dof rx ry rz
  end
  begin
    id 6
    name SpineDummy
    direction 0.0168869 0.966876 -0.254689
    length 6.99894
    axis 0 0 0 xyz
  end
  begin
    id 7
    name Spine
    direction -0.0132008 0.999903 0.00446247
    length 11.1999
    axis -0.00148109 0.00725429 0.756411 xyz
    dof rx ry rz
  end
  begin
    id 8
    name Spine1
    direction 0 0 0
    length 0
    axis -0.000934958 0.0245693 1.46543 xyz
    dof rx ry rz
  end
  begin
    id 9
    name HEadDummy
    direction -0.0255732 0.999672 0.00128215
    length 3.43865
    axis -0.000934958 0.0245693 1.46543 xyz
  end
  begin
    id 10
    name HEad
    direction -0.0472656 0.980052 0.19304
    length 5.12695
    axis -0.000934954 0.0245693 1.46543 xyz
    dof rx ry rz
  end
  begin
    id 11
    name LeftShoulder1Dummy
    direction 0.953098 0.301717 -0.023914
    length 3.68488
    axis -0.000934958 0.0245693 1.46543 xyz
  end
  begin
    id 12
    name LeftShoulder1
    direction 0.962466 0.271167 0.0112566
    length 3.13809
    axis -0.000934958 0.0245693 1.46543 xyz
    dof rx ry rz
  end
  begin
    id 13
    name LeftArm
    direction 0.999943 0.00455037 -0.00961766
    length 11.3419
    axis -23.1648 0.685459 1.22814 xyz
    dof rx ry rz
  end
  begin
    id 14
    name LeftForeArm
    direction 0.999332 0.0131969 0.0340885
    length 8.70632
    axis -9.90633 0.618216 0.0826942 xyz
    dof rx ry rz
  end
  begin
    id 15
    name LeftHand
    direction 0.994373 -0.0366703 0.0993905
    length 5.32135
    axis 0.00675269 0.680415 0.445699 xyz
    dof rx ry rz
  end
  begin
    id 16
    name RightShoulderDummy
    direction -0.967298 0.252589 -0.0230903
    length 3.68488
    axis -0.000934958 0.0245693 1.46543 xyz
  end
  begin
    id 17
    name RightShoulder
    direction -0.975062 0.221602 0.0120823
    length 3.13809
    axis 0.216257 0.0246515 1.45863 xyz
    dof rx ry rz
  end
  begin
    id 18
    name RightArm
    direction -0.99886 -0.00851186 -0.0469687
    length 10.3947
    axis -23.196 0.23503 -0.532632 xyz
    dof rx ry rz
  end
  begin
    id 19
    name RightForeArm
    direction -0.99909 0.00114866 0.0426317
    length 8.68355
    axis -9.91764 -0.134943 0.610517 xyz
    dof rx ry rz
  end
  begin
    id 20
    name RightHand
    direction -0.992888 -0.0489538 0.10852
    length 5.28593
    axis -0.00275396 -0.197403 0.246414 xyz
    dof rx ry rz
  end
  begin
    id 21
    name LeftUpLegDummy
    direction 1 -2.30186e-007 -8.31532e-007
    length 4.04083
    axis 0 0 0 xyz
  end
  begin
    id 22
    name LeftUpLeg
    direction -0.000920097 -1 2.79241e-006
    length 17.4221
    axis -3.48782 0.00143434 -0.0532288 xyz
    dof rx ry rz
  end
  begin
    id 23
    name LeftLeg
    direction -0.000920097 -1 2.7912e-006
    length 17.1239
    axis 3.68162 -0.00806512 -0.0529896 xyz
    dof rx ry rz
  end
  begin
    id 24
    name LeftFoot
    direction -2.57845e-005 -3.987e-007 1
    length 6.72091
    axis 3.02372e-005 -0.00147829 -0.214229 xyz
    dof rx ry rz
  end
  begin
    id 25
    name LeftToes
    direction 0.00813577 -0.00488255 0.999955
    length 3.85048
    axis 3.89895e-005 -0.0014783 -0.214229 xyz
    dof rx ry rz
  end
:hierarchy
  begin
    root RightUpLegDummy SpineDummy LeftUpLegDummy
    RightUpLegDummy RightUpLeg
    RightUpLeg RightLeg
    RightLeg RightFoot
    RightFoot RightToes
    SpineDummy Spine
    Spine Spine1
    Spine1 HEadDummy LeftShoulder1Dummy RightShoulderDummy
    HEadDummy HEad
    LeftShoulder1Dummy LeftShoulder1
    LeftShoulder1 LeftArm
    LeftArm LeftForeArm
    LeftForeArm LeftHand
    RightShoulderDummy RightShoulder
    RightShoulder RightArm
    RightArm RightForeArm
    RightForeArm RightHand
    LeftUpLegDummy LeftUpLeg
    LeftUpLeg LeftLeg
    LeftLeg LeftFoot
    LeftFoot LeftToes
  end

:SAMPLES-PER-SECOND 30
:FULLY-SPECIFIED
:DEGREES
49
root  -17.2761 34.6821 34.2853 -169.472 3.65909 -179.266
RightUpLeg  -9.04706 -17.0533 2.43751
RightLeg  4.68357 -2.80394 -0.0426012
RightFoot  4.52379 0.00474926 -0.0748624
RightToes  -23.2795 -0.0937928 -0.199561
Spine  -2.35935 0.126895 0.36559
Spine1  -4.78595 0.363061 1.28868
HEad  -65.5762 1.10159 6.7085
LeftShoulder1  -1.94126e-019 -3.10601e-018 -2.51263e-017
LeftArm  -11.9958 23.8372 -81.6754
LeftForeArm  30.8098 -18.6525 -3.09552
LeftHand  -0.393969 -1.1256 7.16293
RightShoulder  -4.96962e-017 0 -2.36833e-017
RightArm  -28.6314 -22.1928 76.6047
RightForeArm  57.9117 14.1687 1.20996
RightHand  -0.401369 -1.16438 -10.789
LeftUpLeg  -7.18041 4.36147 1.29823
LeftLeg  4.64945 14.0786 0.233391
LeftFoot  3.83928 -0.0312566 1.09475
LeftToes  -15.9814 1.31378e-006 1.14341e-007
50
root  -17.2784 34.6807 34.2601 -169.467 3.71385 -179.26
RightUpLeg  -9.01699 -17.0198 2.42224
RightLeg  4.68879 -2.78201 -0.0401067
RightFoot  4.49825 0.0040209 -0.0700308
RightToes  -23.2896 -0.0939239 -0.199772
Spine  -2.37766 0.142889 0.348776
Spine1  -4.82276 0.393668 1.25978
HEad  -65.3899 0.93415 6.62896
LeftShoulder1  -1.94126e-019 -3.10601e-018 -2.51263e-017
LeftArm  -12.2174 23.9393 -81.664
LeftForeArm  30.917 -18.1789 -3.02357
LeftHand  -0.392432 -1.13847 7.12247
RightShoulder  -4.96962e-017 0 -2.36833e-017
RightArm  -28.5518 -22.2298 76.5449
RightForeArm  57.8269 14.1915 1.20604
RightHand  -0.402967 -1.17023 -10.781
LeftUpLeg  -7.12061 4.36575 1.29814
LeftLeg  4.62382 14.1259 0.229287
LeftFoot  3.80166 -0.0308659 1.08868
LeftToes  -16.0598 1.31378e-006 1.14341e-007
51
root  -17.2809 34.677 34.2292 -169.475 3.81569 -179.252
RightUpLeg  -8.98671 -16.9937 2.39988
RightLeg  4.73076 -2.71687 -0.0484476
RightFoot  4.43834 0.00342897 -0.0665739
RightToes  -23.2713 -0.0940836 -0.200013
Spine  -2.40399 0.164714 0.332484
Spine1  -4.87585 0.436116 1.23339
HEad  -65.0877 0.773368 6.50489
LeftShoulder1  -1.94126e-019 -3.10601e-018 -2.51263e-017
LeftArm  -12.4755 24.0834 -81.6541
LeftForeArm  31.1041 -17.6526 -2.93973
LeftHand  -0.405266 -1.1486 7.3407
RightShoulder  -4.96962e-017 0 -2.36833e-017
RightArm  -28.5024 -22.2745 76.4554
RightForeArm  57.7922 14.1635 1.21223
RightHand  -0.402263 -1.22046 -10.8117
LeftUpLeg  -7.0371 4.443 1.29117
LeftLeg  4.60667 14.1561 0.225573
LeftFoot  3.71044 -0.0295128 1.06765
LeftToes  -15.9903 1.31378e-006 1.14341e-007
52
root  -17.2821 34.6741 34.1942 -169.498 3.9584 -179.247
RightUpLeg  -8.96009 -16.8193 2.3613
RightLeg  4.82566 -2.75408 -0.0536731
RightFoot  4.36626 0.00308664 -0.0660774
RightToes  -23.3257 -0.0942732 -0.200285
Spine  -2.43175 0.1896 0.320886
Spine1  -4.93221 0.485106 1.21493
HEad  -64.7824 0.657172 6.38142
LeftShoulder1  -1.94126e-019 -3.10601e-018 -2.51263e-017
LeftArm  -12.7374 24.2722 -81.6526
LeftForeArm  31.2177 -17.1224 -2.8535
LeftHand  -0.402339 -1.12839 7.30955
RightShoulder  -4.96962e-017 0 -2.36833e-017
RightArm  -28.5292 -22.3297 76.3459
RightForeArm  57.8021 14.1213 1.21822
RightHand  -0.401347 -1.24054 -10.8084
LeftUpLeg  -6.94542 4.49887 1.27954
LeftLeg  4.62624 14.2464 0.231803
LeftFoot  3.65726 -0.0290205 1.06
LeftToes  -15.9847 1.31378e-006 1.14341e-007
53
root  -17.2831 34.6705 34.1522 -169.541 4.13971 -179.243
RightUpLeg  -8.91714 -16.6598 2.31389
RightLeg  4.94043 -2.75666 -0.059234
RightFoot  4.27369 0.00273168 -0.0647616
RightToes  -23.2824 -0.0944936 -0.200591
Spine  -2.48082 0.212879 0.314584
Spine1  -5.03083 0.531071 1.20769
HEad  -64.3865 0.6133 6.34569
LeftShoulder1  -1.94126e-019 -3.10601e-018 -2.51263e-017
LeftArm  -13.0744 24.5256 -81.6513
LeftForeArm  31.3259 -16.5912 -2.7691
LeftHand  -0.388115 -1.08733 7.09693
RightShoulder  -4.96962e-017 0 -2.36833e-017
RightArm  -28.6165 -22.4316 76.2203
RightForeArm  57.8975 14.0442 1.22819
RightHand  -0.399538 -1.22059 -10.7794
LeftUpLeg  -6.81515 4.60981 1.2692
LeftLeg  4.64472 14.2985 0.237198
LeftFoot  3.58256 -0.0279981 1.0441
LeftToes  -15.975 1.31378e-006 1.14341e-007
54
root  -17.2838 34.6654 34.1089 -169.619 4.31117 -179.24
RightUpLeg  -8.84535 -16.4617 2.2501
RightLeg  5.08067 -2.78762 -0.066718
RightFoot  4.18651 0.00238419 -0.0628823
RightToes  -23.322 -0.0947462 -0.200931
Spine  -2.51329 0.221678 0.314374
Spine1  -5.09655 0.548079 1.20728
HEad  -63.9332 0.571611 6.20427
LeftShoulder1  -1.94126e-019 -3.10601e-018 -2.51263e-017
LeftArm  -13.4415 24.769 -81.6598
LeftForeArm  31.4275 -16.0863 -2.68862
LeftHand  -0.403314 -1.14173 7.31307
RightShoulder  -4.96962e-017 0 -2.36833e-017
RightArm  -28.6958 -22.5354 76.105
RightForeArm  57.9409 14.008 1.23289
RightHand  -0.392486 -1.21957 -10.8426
LeftUpLeg  -6.66259 4.5714 1.25842
LeftLeg  4.69619 14.5037 0.253425
LeftFoot  3.4819 -0.0271675 1.03119
LeftToes  -15.8272 1.31378e-006 1.14341e-007
55
root  -17.2835 34.6599 34.0673 -169.684 4.4516 -179.229
RightUpLeg  -8.77623 -16.2447 2.20277
RightLeg  5.2059 -2.86187 -0.0747612
RightFoot  4.0672 0.00198253 -0.0595267
RightToes  -23.1912 -0.0950321 -0.201308
Spine  -2.56138 0.21555 0.326789
Spine1  -5.19333 0.535612 1.23299
HEad  -63.5445 0.54389 6.1089
LeftShoulder1  -1.94126e-019 -3.10601e-018 -2.51263e-017
LeftArm  -13.7406 25.0263 -81.6717
LeftForeArm  31.5272 -15.5772 -2.60103
LeftHand  -0.407165 -1.06385 7.46436
RightShoulder  -4.96962e-017 0 -2.36833e-017
RightArm  -28.7273 -22.6754 75.9765
RightForeArm  57.9598 13.9909 1.23526
RightHand  -0.381879 -1.3142 -10.7809
LeftUpLeg  -6.53835 4.63194 1.25948
LeftLeg  4.76096 14.5849 0.271123
LeftFoot  3.36947 -0.0256018 1.00686
LeftToes  -15.6798 1.31378e-006 1.14341e-007
56
root  -17.281 34.6545 34.0284 -169.703 4.5379 -179.224
RightUpLeg  -8.76619 -16.2037 2.17985
RightLeg  5.34402 -2.8253 -0.0805964
RightFoot  3.97351 0.00140456 -0.0529173
RightToes  -23.2465 -0.0953524 -0.201722
Spine  -2.60095 0.183812 0.333834
Spine1  -5.27342 0.472348 1.24733
HEad  -63.2602 0.548753 6.06327
LeftShoulder1  -1.94126e-019 -3.10601e-018 -2.51263e-017
LeftArm  -13.9957 25.1694 -81.6452
LeftForeArm  31.6075 -15.0886 -2.5263
LeftHand  -0.418539 -1.15221 7.57297
RightShoulder  -4.96962e-017 0 -2.36833e-017
RightArm  -28.9153 -22.7398 75.8973
RightForeArm  58.0406 13.8987 1.24757
RightHand  -0.389113 -1.27355 -10.8836
LeftUpLeg  -6.47841 4.65686 1.26206
LeftLeg  4.83474 14.6461 0.29089
LeftFoot  3.30542 -0.024733 0.993353
LeftToes  -15.6927 1.31378e-006 1.14341e-007
57
root  -17.2748 34.6544 33.9918 -169.712 4.61398 -179.187
RightUpLeg  -8.57426 -15.2259 2.0776
RightLeg  5.29742 -3.28332 -0.091119
RightFoot  4.04485 0.00373485 -0.0871032
RightToes  -23.3582 -0.0957083 -0.202176
Spine  -2.64285 0.161128 0.350801
Spine1  -5.35808 0.427537 1.28078
HEad  -63.0855 0.48602 6.03808
LeftShoulder1  -1.94126e-019 -3.10601e-018 -2.51263e-017
LeftArm  -14.2324 25.2907 -81.631
LeftForeArm  31.7294 -14.6919 -2.46589
LeftHand  -0.422122 -1.11471 7.51858
RightShoulder  -4.96962e-017 0 -2.36833e-017
RightArm  -29.0421 -22.8752 75.8369
RightForeArm  58.0886 13.8678 1.25154
RightHand  -0.386063 -1.3087 -10.8865
LeftUpLeg  -6.43483 4.68552 1.3025
LeftLeg  4.92127 14.6995 0.313886
LeftFoot  3.23783 -0.0237556 0.97816
LeftToes  -15.5489 1.31378e-006 1.14341e-007
58
root  -17.2672 34.6475 33.9533 -169.763 4.63591 -179.211
RightUpLeg  -8.61442 -16.2069 2.14912
RightLeg  5.40501 -2.74625 -0.081238
RightFoot  3.854 0.00063078 -0.0428307
RightToes  -23.233 -0.0961009 -0.20267
Spine  -2.66037 0.125941 0.348944
Spine1  -5.39258 0.353833 1.28078
HEad  -63.019 0.371436 6.02982
LeftShoulder1  -1.94126e-019 -3.10601e-018 -2.51263e-017
LeftArm  -14.3981 25.3489 -81.5881
LeftForeArm  31.8801 -14.491 -2.43939
LeftHand  -0.417129 -1.11072 7.5927
RightShoulder  -4.96962e-017 0 -2.36833e-017
RightArm  -29.1351 -23.0141 75.8096
RightForeArm  58.1207 13.8617 1.25203
RightHand  -0.386793 -1.24879 -10.8373
LeftUpLeg  -6.31285 4.6838 1.29041
LeftLeg  4.90828 14.7289 0.311197
LeftFoot  3.17159 -0.0227422 0.962409
LeftToes  -15.5152 1.31378e-006 1.14341e-007
59
root  -17.2571 34.6464 33.9333 -169.761 4.67937 -179.182
RightUpLeg  -8.48148 -15.2275 2.05841
RightLeg  5.40987 -3.21687 -0.0955668
RightFoot  3.90176 0.00297965 -0.0756545
RightToes  -23.3168 -0.0965314 -0.203206
Spine  -2.67393 0.110415 0.359671
Spine1  -5.4212 0.323048 1.29955
HEad  -62.9217 0.177005 6.05395
LeftShoulder1  -1.94126e-019 -3.10601e-018 -2.51263e-017
LeftArm  -14.4587 25.3223 -81.5352
LeftForeArm  31.9472 -14.4017 -2.428
LeftHand  -0.409293 -1.11466 7.44827
RightShoulder  -4.96962e-017 0 -2.36833e-017
RightArm  -29.1951 -23.1039 75.8041
RightForeArm  58.192 13.8047 1.25946
RightHand  -0.385532 -1.22755 -10.8627
LeftUpLeg  -6.31713 4.54439 1.32855
LeftLeg  5.0079 14.9247 0.340906
LeftFoot  3.13539 -0.0228015 0.96333
LeftToes  -15.5856 1.31378e-006 1.14341e-007
60
root  -17.2447 34.6428 33.9095 -169.755 4.71223 -179.178
RightUpLeg  -8.45724 -15.2479 2.06915
RightLeg  5.42761 -3.16648 -0.0950374
RightFoot  3.84635 0.00269384 -0.0699658
RightToes  -23.2887 -0.097001 -0.203787
Spine  -2.683 0.0923839 0.363738
Spine1  -5.43968 0.28525 1.3073
HEad  -62.8616 -0.114236 6.12908
LeftShoulder1  -1.94126e-019 -3.10601e-018 -2.51263e-017
LeftArm  -14.4859 25.2843 -81.4686
LeftForeArm  31.9725 -14.513 -2.44811
LeftHand  -0.416006 -1.11255 7.57062
RightShoulder  -4.96962e-017 0 -2.36833e-017
RightArm  -29.2763 -23.182 75.8208
RightForeArm  58.2743 13.7311 1.26922
RightHand  -0.383668 -1.27678 -10.9156
LeftUpLeg  -6.29165 4.59054 1.3485
LeftLeg  5.03944 14.9103 0.348699
LeftFoot  3.08896 -0.0219127 0.949516
LeftToes  -15.555 1.31378e-006 1.14341e-007
61
root  -17.2329 34.6404 33.889 -169.741 4.70465 -179.177
RightUpLeg  -8.40937 -15.2661 2.07755
RightLeg  5.38294 -3.1363 -0.0916822
RightFoot  3.83569 0.00273509 -0.0680578
RightToes  -23.2801 -0.0975109 -0.204412
Spine  -2.68123 0.0673723 0.366287
Spine1  -5.43639 0.233529 1.31206
HEad  -62.7247 -0.609956 6.19361
LeftShoulder1  -1.94126e-019 -3.10601e-018 -2.51263e-017
LeftArm  -14.4398 25.2367 -81.4091
LeftForeArm  31.9458 -14.8402 -2.50074
LeftHand  -0.408676 -1.08995 7.46356
RightShoulder  -4.96962e-017 0 -2.36833e-017
RightArm  -29.4254 -23.2186 75.8737
RightForeArm  58.3854 13.6396 1.28121
RightHand  -0.382824 -1.29425 -10.9498
LeftUpLeg  -6.27831 4.5654 1.36631
LeftLeg  5.05699 14.9337 0.353758
LeftFoot  3.04712 -0.0212472 0.939172
LeftToes  -15.5419 1.31378e-006 1.14341e-007
